<svg xmlns="http://www.w3.org/2000/svg" viewBox="32 -2 1138 1447" role="img" aria-label="Montesina Padel">
  <title>Montesina Padel</title>
  <g fill="currentColor" fill-rule="evenodd"><g transform="translate(0,1460) scale(0.1,-0.1)"><path d="M4303 13895 c-13 -13 -23 -30 -23 -37 0 -8 -9 -20 -20 -28 -11 -8
-20 -22 -20 -32 0 -10 -4 -18 -10 -18 -5 0 -10 -8 -10 -18 0 -10 -9 -24 -20
-32 -11 -8 -20 -21 -20 -28 0 -8 -13 -27 -30 -42 -16 -15 -30 -35 -30 -44 0
-9 -4 -16 -10 -16 -5 0 -10 -9 -10 -20 0 -11 -4 -20 -10 -20 -5 0 -10 -22 -10
-50 0 -27 -4 -50 -10 -50 -5 0 -10 -7 -10 -16 0 -9 -13 -29 -30 -44 -18 -17
-30 -38 -30 -54 0 -14 -4 -26 -10 -26 -5 0 -10 -9 -10 -20 0 -11 -4 -20 -10
-20 -5 0 -10 -9 -10 -20 0 -11 -4 -20 -10 -20 -5 0 -10 -13 -10 -30 0 -16 -4
-30 -10 -30 -5 0 -10 -22 -10 -48 0 -36 -5 -51 -20 -62 -15 -11 -20 -26 -20
-62 0 -26 -4 -48 -10 -48 -5 0 -10 -9 -10 -20 0 -11 -4 -20 -10 -20 -6 0 -10
-27 -10 -60 0 -33 -4 -60 -10 -60 -5 0 -10 -9 -10 -20 0 -11 -4 -20 -10 -20
-5 0 -10 -18 -10 -40 0 -22 -4 -40 -10 -40 -5 0 -10 -9 -10 -20 0 -11 -4 -20
-10 -20 -6 0 -10 -33 -10 -80 0 -47 -4 -80 -10 -80 -5 0 -10 -9 -10 -20 0 -11
-4 -20 -10 -20 -6 0 -10 -27 -10 -60 0 -33 -4 -60 -10 -60 -5 0 -10 -9 -10
-20 0 -11 -4 -20 -10 -20 -5 0 -10 -22 -10 -50 0 -27 -4 -50 -10 -50 -6 0 -10
-30 -10 -70 0 -40 -4 -70 -10 -70 -5 0 -10 -22 -10 -50 0 -27 -4 -50 -10 -50
-6 0 -10 -27 -10 -60 0 -33 -4 -60 -10 -60 -6 0 -10 -37 -10 -90 0 -53 -4 -90
-10 -90 -6 0 -10 -30 -10 -70 0 -40 -4 -70 -10 -70 -6 0 -10 -43 -10 -110 0
-67 -4 -110 -10 -110 -6 0 -10 -50 -10 -130 0 -80 -4 -130 -10 -130 -7 0 -10
-227 -10 -660 0 -433 3 -660 10 -660 6 0 10 -21 10 -46 0 -26 6 -51 14 -60 17
-16 66 -19 66 -4 0 6 13 10 28 10 16 0 34 8 42 20 8 11 21 20 30 20 9 0 22 9
30 20 8 11 22 20 32 20 10 0 18 5 18 10 0 6 9 10 20 10 11 0 20 5 20 10 0 6 9
10 20 10 11 0 20 5 20 10 0 6 8 10 18 10 10 0 24 9 32 20 8 11 21 20 30 20 9
0 22 9 30 20 8 11 26 20 40 20 14 0 32 9 40 20 8 11 26 20 40 20 14 0 32 9 40
20 8 12 26 20 42 20 15 0 28 5 28 10 0 6 9 10 20 10 11 0 20 5 20 10 0 6 9 10
20 10 11 0 20 5 20 10 0 6 17 10 38 10 26 0 42 6 52 20 8 12 26 20 42 20 15 0
28 5 28 10 0 6 9 10 20 10 11 0 20 5 20 10 0 6 7 10 16 10 8 0 22 6 30 14 16
17 19 46 4 46 -6 0 -10 27 -10 60 0 33 -4 60 -10 60 -6 0 -10 27 -10 60 0 33
-4 60 -10 60 -5 0 -10 18 -10 40 0 22 -4 40 -10 40 -6 0 -10 33 -10 80 0 47
-4 80 -10 80 -6 0 -10 30 -10 70 0 40 -4 70 -10 70 -6 0 -10 30 -10 70 0 40
-4 70 -10 70 -5 0 -10 9 -10 20 0 11 -4 20 -10 20 -6 0 -10 87 -10 240 0 153
-4 240 -10 240 -6 0 -10 70 -10 190 0 120 -4 190 -10 190 -7 0 -10 257 -10
750 0 493 3 750 10 750 6 0 10 80 10 220 0 140 4 220 10 220 6 0 10 33 10 80
0 47 -4 80 -10 80 -5 0 -10 9 -10 20 0 13 -7 20 -20 20 -11 0 -20 5 -20 10 0
16 -13 11 -37 -15z M7613 13865 c-15 -17 -18 -145 -3 -145 6 0 10 -73 10 -200 0 -127 4
-200 10 -200 7 0 10 -260 10 -760 0 -500 -3 -760 -10 -760 -6 0 -10 -50 -10
-130 0 -80 -4 -130 -10 -130 -6 0 -10 -77 -10 -210 0 -133 -4 -210 -10 -210
-5 0 -10 -22 -10 -50 0 -27 -4 -50 -10 -50 -6 0 -10 -57 -10 -150 0 -93 -4
-150 -10 -150 -5 0 -10 -18 -10 -40 0 -22 -4 -40 -10 -40 -6 0 -10 -47 -10
-120 0 -73 -4 -120 -10 -120 -5 0 -10 -9 -10 -20 0 -11 -4 -20 -10 -20 -6 0
-10 -30 -10 -70 0 -40 -4 -70 -10 -70 -6 0 -10 -30 -10 -70 0 -40 -4 -70 -10
-70 -15 0 -12 -49 4 -66 8 -8 31 -14 50 -14 20 0 36 -4 36 -10 0 -5 9 -10 20
-10 11 0 20 -4 20 -10 0 -5 14 -10 30 -10 17 0 30 -4 30 -10 0 -5 9 -10 20
-10 11 0 20 -4 20 -10 0 -5 14 -10 30 -10 17 0 30 -4 30 -10 0 -5 9 -10 20
-10 11 0 20 -4 20 -10 0 -5 9 -10 20 -10 11 0 20 -4 20 -10 0 -5 9 -10 20 -10
11 0 20 -4 20 -10 0 -5 9 -10 20 -10 11 0 20 -4 20 -10 0 -5 9 -10 20 -10 11
0 20 -4 20 -10 0 -5 9 -10 20 -10 11 0 20 -4 20 -10 0 -5 9 -10 20 -10 11 0
20 -4 20 -10 0 -5 9 -10 20 -10 11 0 20 -4 20 -10 0 -5 8 -10 18 -10 10 0 24
-9 32 -20 8 -11 22 -20 32 -20 10 0 18 -4 18 -10 0 -5 9 -10 20 -10 11 0 20
-4 20 -10 0 -5 7 -10 16 -10 9 0 29 -13 44 -30 15 -16 35 -30 44 -30 9 0 16
-4 16 -10 0 -5 7 -10 16 -10 9 0 30 -15 47 -32 19 -21 32 -28 34 -20 3 6 13
12 24 12 12 0 19 7 19 20 0 11 5 20 10 20 7 0 10 227 10 660 0 433 -3 660 -10
660 -6 0 -10 57 -10 150 0 93 -4 150 -10 150 -6 0 -10 43 -10 110 0 67 -4 110
-10 110 -6 0 -10 33 -10 80 0 47 -4 80 -10 80 -6 0 -10 33 -10 80 0 47 -4 80
-10 80 -6 0 -10 30 -10 70 0 40 -4 70 -10 70 -5 0 -10 23 -10 50 0 28 -4 50
-10 50 -5 0 -10 14 -10 30 0 17 -4 30 -10 30 -6 0 -10 37 -10 90 0 53 -4 90
-10 90 -5 0 -10 23 -10 50 0 28 -4 50 -10 50 -5 0 -10 18 -10 40 0 22 -4 40
-10 40 -5 0 -10 18 -10 40 0 22 -4 40 -10 40 -5 0 -10 23 -10 50 0 28 -4 50
-10 50 -5 0 -10 14 -10 30 0 17 -4 30 -10 30 -5 0 -10 23 -10 50 0 28 -4 50
-10 50 -5 0 -10 23 -10 50 0 28 -4 50 -10 50 -5 0 -10 14 -10 30 0 17 -4 30
-10 30 -5 0 -10 14 -10 30 0 17 -4 30 -10 30 -5 0 -10 18 -10 40 0 22 -4 40
-10 40 -5 0 -10 9 -10 20 0 11 -4 20 -10 20 -5 0 -10 18 -10 40 0 22 -4 40
-10 40 -5 0 -10 9 -10 20 0 11 -4 20 -10 20 -5 0 -10 14 -10 30 0 17 -4 30
-10 30 -5 0 -10 7 -10 16 0 9 -13 29 -30 44 -23 21 -30 37 -30 64 0 20 -4 36
-10 36 -5 0 -10 9 -10 20 0 11 -4 20 -10 20 -5 0 -10 14 -10 30 0 17 -4 30
-10 30 -5 0 -10 13 -10 28 0 16 -8 34 -20 42 -11 8 -20 22 -20 32 0 10 -4 18
-10 18 -5 0 -10 8 -10 18 0 10 -9 24 -20 32 -11 8 -20 21 -20 30 0 9 -9 22
-20 30 -11 8 -20 21 -20 30 0 9 -9 22 -20 30 -11 8 -20 20 -20 28 0 38 -80 58
-107 27z M9980 13780 c0 -11 5 -20 10 -20 6 0 10 -18 10 -40 0 -22 5 -40 10
-40 6 0 10 -13 10 -30 0 -16 5 -30 10 -30 6 0 10 -13 10 -30 0 -16 5 -30 10
-30 6 0 10 -13 10 -30 0 -16 5 -30 10 -30 6 0 10 -18 10 -40 0 -22 5 -40 10
-40 6 0 10 -22 10 -50 0 -27 5 -50 10 -50 6 0 10 -13 10 -30 0 -16 5 -30 10
-30 6 0 10 -13 10 -30 0 -16 5 -30 10 -30 6 0 10 -33 10 -80 0 -47 4 -80 10
-80 6 0 10 -27 10 -60 0 -33 4 -60 10 -60 6 0 10 -37 10 -90 0 -53 4 -90 10
-90 6 0 10 -57 10 -150 0 -93 4 -150 10 -150 6 0 10 -18 10 -40 0 -22 -4 -40
-10 -40 -6 0 -10 -70 -10 -190 0 -120 -4 -190 -10 -190 -6 0 -10 -49 -10 -128
0 -116 -2 -129 -20 -142 -17 -13 -20 -26 -20 -102 0 -52 -4 -88 -10 -88 -5 0
-10 -9 -10 -20 0 -11 -4 -20 -10 -20 -5 0 -10 -18 -10 -40 0 -22 -4 -40 -10
-40 -5 0 -10 -13 -10 -30 0 -16 -4 -30 -10 -30 -5 0 -10 -9 -10 -20 0 -11 -4
-20 -10 -20 -5 0 -10 -18 -10 -40 0 -22 -4 -40 -10 -40 -5 0 -10 -18 -10 -40
0 -22 -4 -40 -10 -40 -5 0 -10 -9 -10 -20 0 -11 -4 -20 -10 -20 -5 0 -10 -9
-10 -20 0 -11 -4 -20 -10 -20 -5 0 -10 -13 -10 -30 0 -16 -4 -30 -10 -30 -5 0
-10 -9 -10 -20 0 -23 -25 -27 -46 -6 -8 8 -14 26 -14 40 0 14 -4 26 -10 26 -5
0 -10 9 -10 20 0 11 -4 20 -10 20 -5 0 -10 9 -10 20 0 11 -4 20 -10 20 -5 0
-10 13 -10 28 0 16 -8 34 -20 42 -12 8 -20 26 -20 42 0 15 -4 28 -10 28 -5 0
-10 9 -10 20 0 11 -4 20 -10 20 -5 0 -10 7 -10 16 0 9 -13 29 -30 44 -16 15
-30 35 -30 44 0 9 -4 16 -10 16 -5 0 -10 12 -10 26 0 16 -12 37 -30 54 -16 15
-30 33 -30 39 0 15 -46 61 -60 61 -17 0 -40 26 -40 44 0 9 -4 16 -10 16 -5 0
-10 7 -10 15 0 17 -164 185 -181 185 -6 0 -24 14 -39 30 -15 17 -34 30 -42 30
-7 0 -20 9 -28 20 -8 11 -22 20 -32 20 -10 0 -18 5 -18 10 0 6 -9 10 -20 10
-11 0 -20 5 -20 10 0 17 -129 12 -147 -5 -13 -14 -11 -18 16 -44 17 -16 31
-35 31 -43 0 -7 9 -20 20 -28 11 -8 20 -22 20 -32 0 -10 5 -18 10 -18 6 0 10
-9 10 -20 0 -11 5 -20 10 -20 6 0 10 -9 10 -20 0 -11 5 -20 10 -20 6 0 10 -8
10 -18 0 -10 9 -24 20 -32 11 -8 20 -26 20 -40 0 -14 9 -32 20 -40 12 -8 20
-26 20 -42 0 -15 5 -28 10 -28 6 0 10 -13 10 -30 0 -16 5 -30 10 -30 6 0 10
-18 10 -40 0 -22 5 -40 10 -40 6 0 10 -9 10 -20 0 -11 5 -20 10 -20 6 0 10
-18 10 -40 0 -22 5 -40 10 -40 6 0 10 -18 10 -40 0 -22 5 -40 10 -40 6 0 10
-13 10 -30 0 -16 5 -30 10 -30 6 0 10 -27 10 -60 0 -33 4 -60 10 -60 6 0 10
-40 10 -100 0 -60 4 -100 10 -100 6 0 10 -40 10 -100 0 -60 -4 -100 -10 -100
-6 0 -10 -53 -10 -140 0 -87 -4 -140 -10 -140 -5 0 -10 -9 -10 -20 0 -11 -4
-20 -10 -20 -5 0 -10 -13 -10 -28 0 -16 -8 -34 -20 -42 -12 -8 -20 -26 -20
-42 0 -15 -4 -28 -10 -28 -5 0 -10 -13 -10 -28 0 -16 -8 -34 -20 -42 -12 -8
-20 -26 -20 -42 0 -15 -4 -28 -10 -28 -5 0 -10 -13 -10 -28 0 -16 -8 -34 -20
-42 -11 -8 -20 -25 -20 -38 0 -14 -13 -36 -30 -52 -16 -15 -30 -33 -30 -40 0
-7 -13 -25 -30 -40 -16 -15 -30 -33 -30 -40 0 -6 -22 -33 -50 -60 -27 -27 -50
-56 -50 -64 0 -9 -9 -16 -20 -16 -13 0 -20 -7 -20 -18 0 -10 -9 -24 -20 -32
-11 -8 -20 -22 -20 -32 0 -11 -7 -18 -20 -18 -13 0 -20 -7 -20 -20 0 -11 -7
-20 -15 -20 -23 0 -85 -66 -85 -90 0 -21 81 -110 100 -110 14 0 200 -187 200
-201 0 -6 18 -28 40 -49 22 -21 40 -44 40 -50 0 -7 14 -25 30 -40 17 -15 30
-34 30 -42 0 -7 9 -20 20 -28 11 -8 20 -22 20 -32 0 -10 5 -18 10 -18 6 0 10
-8 10 -18 0 -10 9 -24 20 -32 11 -8 20 -22 20 -32 0 -10 5 -18 10 -18 6 0 10
-9 10 -20 0 -11 5 -20 10 -20 6 0 10 -9 10 -20 0 -11 5 -20 10 -20 6 0 10 -7
10 -16 0 -8 6 -22 14 -30 17 -16 46 -19 46 -4 0 6 9 10 20 10 11 0 20 5 20 10
0 6 8 10 18 10 10 0 24 9 32 20 8 11 21 20 30 20 9 0 22 9 30 20 8 11 21 20
30 20 9 0 22 9 30 20 8 11 21 20 30 20 9 0 22 9 30 20 8 11 21 20 28 20 8 0
27 14 42 30 15 17 34 30 42 30 7 0 20 9 28 20 8 11 21 20 28 20 7 0 31 18 52
40 21 22 43 40 50 40 6 0 46 36 90 80 44 44 84 80 90 80 15 0 40 25 40 40 0 6
50 60 110 120 61 60 110 114 110 121 0 6 14 24 30 39 17 15 30 34 30 42 0 7 9
20 20 28 11 8 20 21 20 30 0 9 9 22 20 30 11 8 20 21 20 30 0 9 9 22 20 30 11
8 20 21 20 30 0 9 9 22 20 30 11 8 20 21 20 30 0 9 9 22 20 30 11 8 20 22 20
32 0 10 5 18 10 18 6 0 10 9 10 20 0 11 5 20 10 20 6 0 10 8 10 18 0 10 9 24
20 32 12 8 20 26 20 42 0 15 5 28 10 28 6 0 10 9 10 20 0 11 5 20 10 20 6 0
10 9 10 20 0 11 5 20 10 20 6 0 10 14 10 30 0 17 5 30 10 30 6 0 10 9 10 20 0
11 5 20 10 20 6 0 10 14 10 30 0 17 5 30 10 30 6 0 10 14 10 30 0 17 5 30 10
30 6 0 10 9 10 20 0 11 5 20 10 20 6 0 10 18 10 40 0 22 5 40 10 40 6 0 10 9
10 20 0 11 5 20 10 20 6 0 10 18 10 40 0 22 5 40 10 40 6 0 10 27 10 60 0 33
4 60 10 60 6 0 10 18 10 40 0 22 5 40 10 40 6 0 10 23 10 50 0 28 5 50 10 50
6 0 10 30 10 70 0 40 4 70 10 70 6 0 10 130 10 370 0 240 -4 370 -10 370 -6 0
-10 33 -10 80 0 47 -4 80 -10 80 -6 0 -10 30 -10 70 0 40 -4 70 -10 70 -5 0
-10 23 -10 50 0 28 -4 50 -10 50 -5 0 -10 18 -10 40 0 22 -4 40 -10 40 -5 0
-10 23 -10 50 0 28 -4 50 -10 50 -5 0 -10 14 -10 30 0 17 -4 30 -10 30 -5 0
-10 18 -10 40 0 22 -4 40 -10 40 -5 0 -10 17 -10 38 0 26 -6 42 -20 52 -15 11
-20 26 -20 62 0 26 -4 48 -10 48 -5 0 -10 14 -10 30 0 17 -4 30 -10 30 -5 0
-10 14 -10 30 0 17 -4 30 -10 30 -5 0 -10 9 -10 20 0 11 -4 20 -10 20 -5 0
-10 14 -10 30 0 17 -4 30 -10 30 -5 0 -10 14 -10 30 0 17 -4 30 -10 30 -5 0
-10 9 -10 20 0 11 -4 20 -10 20 -5 0 -10 9 -10 20 0 11 -4 20 -10 20 -5 0 -10
9 -10 20 0 11 -4 20 -10 20 -5 0 -10 9 -10 20 0 11 -4 20 -10 20 -5 0 -10 8
-10 18 0 10 -9 24 -20 32 -12 8 -20 26 -20 42 0 15 -4 28 -10 28 -5 0 -10 9
-10 20 0 11 -4 20 -10 20 -5 0 -10 8 -10 18 0 10 -9 24 -20 32 -11 8 -20 22
-20 32 0 10 -4 18 -10 18 -5 0 -10 9 -10 20 0 11 -4 20 -10 20 -5 0 -10 8 -10
18 0 10 -9 24 -20 32 -11 8 -20 21 -20 30 0 9 -9 22 -20 30 -11 8 -20 21 -20
28 0 8 -13 27 -30 42 -16 15 -30 33 -30 39 0 7 -31 43 -70 81 -38 38 -70 74
-70 80 0 16 -67 80 -85 80 -8 0 -15 5 -15 10 0 6 -18 10 -40 10 -33 0 -40 -3
-40 -20z M1883 13735 c-13 -13 -23 -29 -23 -35 0 -6 -31 -42 -70 -80 -38 -38
-70 -75 -70 -82 0 -8 -9 -20 -20 -28 -11 -8 -20 -21 -20 -30 0 -9 -9 -22 -20
-30 -11 -8 -20 -21 -20 -28 0 -8 -13 -27 -30 -42 -16 -15 -30 -35 -30 -44 0
-9 -4 -16 -10 -16 -5 0 -10 -9 -10 -20 0 -11 -4 -20 -10 -20 -5 0 -10 -9 -10
-20 0 -11 -4 -20 -10 -20 -5 0 -10 -9 -10 -20 0 -11 -4 -20 -10 -20 -5 0 -10
-9 -10 -20 0 -11 -4 -20 -10 -20 -5 0 -10 -8 -10 -18 0 -10 -9 -24 -20 -32
-11 -8 -20 -26 -20 -40 0 -14 -9 -32 -20 -40 -11 -8 -20 -22 -20 -32 0 -10 -4
-18 -10 -18 -5 0 -10 -9 -10 -20 0 -11 -4 -20 -10 -20 -5 0 -10 -13 -10 -30 0
-16 -4 -30 -10 -30 -5 0 -10 -9 -10 -20 0 -11 -4 -20 -10 -20 -5 0 -10 -9 -10
-20 0 -11 -4 -20 -10 -20 -5 0 -10 -13 -10 -30 0 -16 -4 -30 -10 -30 -5 0 -10
-13 -10 -30 0 -16 -4 -30 -10 -30 -5 0 -10 -13 -10 -30 0 -16 -4 -30 -10 -30
-5 0 -10 -9 -10 -20 0 -11 -4 -20 -10 -20 -5 0 -10 -18 -10 -40 0 -22 -4 -40
-10 -40 -5 0 -10 -18 -10 -40 0 -22 -4 -40 -10 -40 -5 0 -10 -9 -10 -20 0 -11
-4 -20 -10 -20 -5 0 -10 -22 -10 -50 0 -27 -4 -50 -10 -50 -5 0 -10 -9 -10
-20 0 -11 -4 -20 -10 -20 -6 0 -10 -27 -10 -60 0 -33 -4 -60 -10 -60 -6 0 -10
-27 -10 -60 0 -33 -4 -60 -10 -60 -6 0 -10 -27 -10 -60 0 -33 -4 -60 -10 -60
-6 0 -10 -30 -10 -70 0 -40 -4 -70 -10 -70 -6 0 -10 -63 -10 -170 0 -107 -4
-170 -10 -170 -6 0 -10 -60 -10 -160 0 -100 4 -160 10 -160 6 0 10 -47 10
-120 0 -73 4 -120 10 -120 6 0 10 -27 10 -60 0 -33 4 -60 10 -60 6 0 10 -22
10 -50 0 -27 5 -50 10 -50 6 0 10 -18 10 -40 0 -22 5 -40 10 -40 6 0 10 -18
10 -40 0 -22 5 -40 10 -40 6 0 10 -13 10 -30 0 -16 5 -30 10 -30 6 0 10 -13
10 -30 0 -16 5 -30 10 -30 6 0 10 -13 10 -30 0 -16 5 -30 10 -30 6 0 10 -13
10 -30 0 -16 5 -30 10 -30 6 0 10 -13 10 -30 0 -16 5 -30 10 -30 6 0 10 -13
10 -30 0 -16 5 -30 10 -30 6 0 10 -9 10 -20 0 -11 5 -20 10 -20 6 0 10 -13 10
-28 0 -16 8 -34 20 -42 11 -8 20 -22 20 -32 0 -10 5 -18 10 -18 6 0 10 -9 10
-20 0 -11 5 -20 10 -20 6 0 10 -13 10 -30 0 -16 5 -30 10 -30 6 0 10 -9 10
-20 0 -11 5 -20 10 -20 6 0 10 -8 10 -18 0 -10 9 -24 20 -32 11 -8 20 -22 20
-32 0 -10 5 -18 10 -18 6 0 10 -8 10 -18 0 -10 9 -24 20 -32 11 -8 20 -21 20
-30 0 -9 9 -22 20 -30 11 -8 20 -21 20 -30 0 -9 9 -22 20 -30 11 -8 20 -21 20
-28 0 -7 18 -31 40 -52 22 -21 40 -45 40 -52 0 -7 9 -20 20 -28 11 -8 20 -20
20 -28 0 -7 45 -57 100 -112 55 -55 100 -106 100 -115 0 -8 9 -15 20 -15 13 0
20 -7 20 -20 0 -13 7 -20 20 -20 13 0 20 -7 20 -20 0 -11 7 -20 16 -20 8 0 42
-27 74 -60 32 -33 64 -60 70 -60 6 0 33 -22 60 -50 27 -27 54 -50 60 -50 6 0
29 -18 50 -40 21 -22 44 -40 50 -40 7 0 25 -13 40 -30 15 -16 35 -30 44 -30 9
0 16 -4 16 -10 0 -5 8 -10 18 -10 10 0 24 -9 32 -20 8 -11 21 -20 30 -20 9 0
22 -9 30 -20 8 -11 20 -20 27 -20 23 0 103 88 103 113 0 12 9 29 20 37 11 8
20 22 20 32 0 10 5 18 10 18 6 0 10 8 10 18 0 10 9 24 20 32 11 8 20 21 20 30
0 9 9 22 20 30 11 8 20 21 20 28 0 8 13 27 30 42 17 15 30 33 30 39 0 7 50 61
110 121 61 60 110 114 110 120 0 14 66 80 80 80 19 0 80 69 80 91 0 11 -14 34
-30 49 -17 15 -30 35 -30 44 0 9 -8 16 -20 16 -11 0 -20 5 -20 10 0 6 -7 10
-16 10 -22 0 -44 25 -44 50 0 12 -14 35 -30 50 -17 15 -30 33 -30 40 0 6 -23
33 -50 60 -28 27 -50 54 -50 60 0 7 -14 25 -30 40 -17 15 -30 35 -30 44 0 9
-4 16 -10 16 -5 0 -10 9 -10 20 0 11 -4 20 -10 20 -5 0 -10 8 -10 18 0 10 -9
24 -20 32 -11 8 -20 22 -20 32 0 10 -4 18 -10 18 -5 0 -10 14 -10 30 0 17 -4
30 -10 30 -5 0 -10 14 -10 30 0 17 -4 30 -10 30 -5 0 -10 14 -10 30 0 17 -4
30 -10 30 -5 0 -10 18 -10 40 0 22 -4 40 -10 40 -5 0 -10 14 -10 30 0 17 -4
30 -10 30 -5 0 -10 23 -10 50 0 28 -4 50 -10 50 -6 0 -10 47 -10 120 0 73 -4
120 -10 120 -5 0 -10 9 -10 20 0 11 5 20 10 20 6 0 10 53 10 140 0 87 4 140
10 140 6 0 10 30 10 70 0 40 4 70 10 70 6 0 10 14 10 30 0 17 5 30 10 30 6 0
10 23 10 50 0 28 5 50 10 50 6 0 10 18 10 40 0 22 5 40 10 40 6 0 10 14 10 30
0 17 5 30 10 30 6 0 10 14 10 30 0 17 5 30 10 30 6 0 10 14 10 30 0 17 5 30
10 30 6 0 10 9 10 20 0 11 5 20 10 20 6 0 10 9 10 20 0 11 5 20 10 20 6 0 10
13 10 28 0 16 8 34 20 42 11 8 20 22 20 32 0 10 5 18 10 18 6 0 10 9 10 20 0
11 5 20 10 20 6 0 10 9 10 20 0 11 5 20 10 20 6 0 10 9 10 20 0 11 5 20 10 20
6 0 10 8 10 18 0 10 9 24 20 32 24 17 26 36 6 56 -17 16 -126 20 -126 4 0 -5
-9 -10 -20 -10 -11 0 -20 -4 -20 -10 0 -5 -7 -10 -16 -10 -8 0 -37 -22 -64
-50 -27 -27 -54 -50 -59 -50 -15 0 -241 -227 -241 -241 0 -6 -18 -28 -40 -49
-22 -21 -40 -45 -40 -52 0 -7 -9 -20 -20 -28 -11 -8 -20 -21 -20 -30 0 -9 -9
-22 -20 -30 -11 -8 -20 -22 -20 -32 0 -10 -4 -18 -10 -18 -5 0 -10 -8 -10 -18
0 -10 -9 -24 -20 -32 -11 -8 -20 -22 -20 -32 0 -10 -4 -18 -10 -18 -5 0 -10
-13 -10 -28 0 -16 -8 -34 -20 -42 -12 -8 -20 -26 -20 -42 0 -15 -4 -28 -10
-28 -5 0 -10 -9 -10 -20 0 -11 -4 -20 -10 -20 -5 0 -10 -13 -10 -30 0 -16 -4
-30 -10 -30 -5 0 -10 -18 -10 -40 0 -38 -2 -40 -30 -40 -23 0 -30 4 -30 20 0
11 -4 20 -10 20 -5 0 -10 9 -10 20 0 11 -4 20 -10 20 -5 0 -10 13 -10 28 0 16
-8 34 -20 42 -14 10 -20 26 -20 52 0 21 -4 38 -10 38 -5 0 -10 14 -10 30 0 17
-4 30 -10 30 -5 0 -10 18 -10 40 0 22 -4 40 -10 40 -5 0 -10 9 -10 20 0 11 -4
20 -10 20 -5 0 -10 18 -10 40 0 22 -4 40 -10 40 -5 0 -10 23 -10 50 0 28 -4
50 -10 50 -5 0 -10 23 -10 50 0 28 -4 50 -10 50 -5 0 -10 9 -10 20 0 11 -4 20
-10 20 -6 0 -10 37 -10 90 0 53 -4 90 -10 90 -6 0 -10 40 -10 100 0 60 -4 100
-10 100 -6 0 -10 93 -10 260 0 167 4 260 10 260 6 0 10 43 10 110 0 67 4 110
10 110 6 0 10 30 10 70 0 40 4 70 10 70 6 0 10 27 10 60 0 33 4 60 10 60 6 0
10 27 10 60 0 33 4 60 10 60 6 0 10 23 10 50 0 28 5 50 10 50 6 0 10 18 10 40
0 22 5 40 10 40 6 0 10 23 10 50 0 28 5 50 10 50 6 0 10 14 10 30 0 17 5 30
10 30 6 0 10 14 10 30 0 17 5 30 10 30 6 0 10 14 10 30 0 17 5 30 10 30 6 0
10 13 10 29 0 16 6 31 12 33 9 3 8 9 -4 21 -27 27 -117 22 -145 -8z M5560 9890 c0 -6 -27 -10 -60 -10 -33 0 -60 -4 -60 -10 0 -6 -27 -10
-60 -10 -33 0 -60 -4 -60 -10 0 -6 -27 -10 -60 -10 -33 0 -60 -4 -60 -10 0 -5
-18 -10 -40 -10 -22 0 -40 -4 -40 -10 0 -5 -18 -10 -40 -10 -22 0 -40 -4 -40
-10 0 -5 -9 -10 -20 -10 -11 0 -20 -4 -20 -10 0 -5 -22 -10 -50 -10 -27 0 -50
-4 -50 -10 0 -5 -13 -10 -30 -10 -16 0 -30 -4 -30 -10 0 -5 -13 -10 -30 -10
-16 0 -30 -4 -30 -10 0 -5 -17 -10 -38 -10 -26 0 -42 -6 -52 -20 -10 -14 -26
-20 -52 -20 -21 0 -38 -4 -38 -10 0 -5 -9 -10 -20 -10 -11 0 -20 -4 -20 -10 0
-5 -9 -10 -20 -10 -11 0 -20 -4 -20 -10 0 -5 -13 -10 -30 -10 -16 0 -30 -4
-30 -10 0 -5 -13 -10 -30 -10 -16 0 -30 -4 -30 -10 0 -5 -9 -10 -20 -10 -11 0
-20 -4 -20 -10 0 -5 -9 -10 -20 -10 -11 0 -20 -4 -20 -10 0 -5 -9 -10 -20 -10
-11 0 -20 -4 -20 -10 0 -5 -7 -10 -16 -10 -9 0 -29 -13 -44 -30 -17 -18 -38
-30 -54 -30 -14 0 -26 -4 -26 -10 0 -5 -9 -10 -20 -10 -11 0 -20 -4 -20 -10 0
-5 -8 -10 -18 -10 -10 0 -24 -9 -32 -20 -8 -11 -21 -20 -30 -20 -9 0 -22 -9
-30 -20 -8 -11 -21 -20 -30 -20 -9 0 -22 -9 -30 -20 -8 -11 -21 -20 -30 -20
-9 0 -22 -9 -30 -20 -8 -11 -21 -20 -28 -20 -8 0 -27 -13 -42 -30 -15 -16 -35
-30 -44 -30 -9 0 -16 -8 -16 -20 0 -13 -7 -20 -20 -20 -11 0 -20 -4 -20 -10 0
-5 -7 -10 -15 -10 -9 0 -56 -40 -105 -90 -49 -49 -94 -90 -100 -90 -16 0 -60
-47 -60 -65 0 -8 -9 -15 -20 -15 -11 0 -20 -7 -20 -15 0 -9 -31 -47 -70 -85
-38 -38 -70 -74 -70 -80 0 -6 -18 -29 -40 -50 -22 -21 -40 -45 -40 -52 0 -7
-9 -20 -20 -28 -11 -8 -20 -21 -20 -28 0 -7 -18 -31 -40 -52 -22 -21 -40 -46
-40 -54 0 -9 -4 -16 -10 -16 -5 0 -10 -9 -10 -20 0 -11 -4 -20 -10 -20 -5 0
-10 -8 -10 -18 0 -10 -9 -24 -20 -32 -11 -8 -20 -26 -20 -40 0 -14 -9 -32 -20
-40 -11 -8 -20 -22 -20 -32 0 -10 -4 -18 -10 -18 -5 0 -10 -9 -10 -20 0 -11
-4 -20 -10 -20 -5 0 -10 -13 -10 -30 0 -16 -4 -30 -10 -30 -5 0 -10 -9 -10
-20 0 -11 -4 -20 -10 -20 -5 0 -10 -9 -10 -20 0 -11 -4 -20 -10 -20 -5 0 -10
-13 -10 -30 0 -16 -4 -30 -10 -30 -5 0 -10 -18 -10 -40 0 -22 -4 -40 -10 -40
-5 0 -10 -8 -10 -18 0 -10 -9 -24 -20 -32 -14 -10 -20 -26 -20 -52 0 -21 -4
-38 -10 -38 -5 0 -10 -18 -10 -40 0 -22 -4 -40 -10 -40 -5 0 -10 -9 -10 -20 0
-11 -4 -20 -10 -20 -5 0 -10 -22 -10 -50 0 -27 -4 -50 -10 -50 -5 0 -10 -22
-10 -50 0 -27 -4 -50 -10 -50 -5 0 -10 -18 -10 -40 0 -22 -4 -40 -10 -40 -6 0
-10 -47 -10 -120 0 -73 -4 -120 -10 -120 -7 0 -10 -193 -10 -560 0 -367 3
-560 10 -560 6 0 10 -27 10 -60 0 -33 4 -60 10 -60 6 0 10 -37 10 -90 0 -53 4
-90 10 -90 6 0 10 -13 10 -30 0 -16 5 -30 10 -30 6 0 10 -27 10 -60 0 -33 4
-60 10 -60 6 0 10 -22 10 -50 0 -27 5 -50 10 -50 6 0 10 -18 10 -40 0 -22 5
-40 10 -40 6 0 10 -13 10 -30 0 -16 5 -30 10 -30 6 0 10 -13 10 -30 0 -16 5
-30 10 -30 6 0 10 -9 10 -20 0 -11 5 -20 10 -20 6 0 10 -22 10 -50 0 -27 5
-50 10 -50 6 0 10 -13 10 -30 0 -16 5 -30 10 -30 6 0 10 -9 10 -20 0 -11 5
-20 10 -20 6 0 10 -13 10 -30 0 -16 5 -30 10 -30 6 0 10 -9 10 -20 0 -11 5
-20 10 -20 6 0 10 -13 10 -30 0 -16 5 -30 10 -30 6 0 10 -9 10 -20 0 -11 5
-20 10 -20 6 0 10 -9 10 -20 0 -11 5 -20 10 -20 6 0 10 -13 10 -28 0 -16 8
-34 20 -42 11 -8 20 -22 20 -32 0 -10 5 -18 10 -18 6 0 10 -9 10 -20 0 -11 5
-20 10 -20 6 0 10 -7 10 -16 0 -9 14 -29 30 -44 17 -15 30 -35 30 -44 0 -9 5
-16 10 -16 6 0 10 -9 10 -20 0 -11 5 -20 10 -20 6 0 10 -9 10 -20 0 -11 5 -20
10 -20 6 0 10 -7 10 -16 0 -8 18 -33 40 -54 22 -21 40 -45 40 -52 0 -7 9 -20
20 -28 11 -8 20 -21 20 -28 0 -7 18 -31 40 -52 22 -21 40 -44 40 -50 0 -6 18
-29 40 -50 22 -21 40 -43 40 -50 0 -6 41 -51 90 -100 49 -49 90 -94 90 -100 0
-6 23 -33 50 -60 28 -27 50 -54 50 -60 0 -6 18 -29 40 -50 22 -21 40 -45 40
-52 0 -7 9 -20 20 -28 11 -8 20 -22 20 -32 0 -10 5 -18 10 -18 6 0 10 -9 10
-20 0 -11 5 -20 10 -20 6 0 10 -8 10 -18 0 -10 9 -24 20 -32 11 -8 20 -26 20
-40 0 -14 9 -32 20 -40 14 -10 20 -26 20 -52 0 -21 5 -38 10 -38 6 0 10 -9 10
-20 0 -11 5 -20 10 -20 6 0 10 -18 10 -40 0 -22 5 -40 10 -40 6 0 10 -9 10
-20 0 -11 5 -20 10 -20 6 0 10 -18 10 -40 0 -22 5 -40 10 -40 6 0 10 -18 10
-40 0 -22 5 -40 10 -40 6 0 10 -18 10 -40 0 -22 5 -40 10 -40 6 0 10 -18 10
-40 0 -22 5 -40 10 -40 6 0 10 -13 10 -30 0 -16 5 -30 10 -30 6 0 10 -9 10
-20 0 -11 5 -20 10 -20 6 0 10 -18 10 -40 0 -22 5 -40 10 -40 6 0 10 -9 10
-20 0 -11 5 -20 10 -20 6 0 10 -13 10 -30 0 -16 5 -30 10 -30 6 0 10 -9 10
-20 0 -11 5 -20 10 -20 6 0 10 -9 10 -20 0 -11 5 -20 10 -20 6 0 10 -9 10 -20
0 -11 5 -20 10 -20 6 0 10 -9 10 -20 0 -11 5 -20 10 -20 6 0 10 -9 10 -20 0
-11 5 -20 10 -20 6 0 10 -9 10 -20 0 -11 5 -20 10 -20 6 0 10 -8 10 -18 0 -10
9 -24 20 -32 11 -8 20 -22 20 -32 0 -10 5 -18 10 -18 6 0 10 -13 10 -28 0 -16
8 -34 20 -42 11 -8 20 -22 20 -32 0 -10 5 -18 10 -18 6 0 10 -8 10 -18 0 -10
9 -24 20 -32 11 -8 20 -21 20 -30 0 -9 9 -22 20 -30 11 -8 20 -21 20 -28 0 -8
14 -27 30 -42 17 -15 30 -33 30 -40 0 -7 13 -25 30 -40 16 -15 30 -33 30 -40
0 -6 18 -29 40 -50 22 -21 40 -43 40 -49 0 -14 246 -261 261 -261 14 0 39 -26
39 -40 0 -15 25 -40 40 -40 6 0 38 -27 70 -60 32 -33 66 -60 74 -60 9 0 16 -4
16 -10 0 -5 7 -10 16 -10 9 0 29 -13 44 -30 15 -16 33 -30 40 -30 7 0 25 -13
40 -30 15 -16 35 -30 44 -30 9 0 16 -4 16 -10 0 -5 9 -10 20 -10 11 0 20 -4
20 -10 0 -5 8 -10 18 -10 10 0 24 -9 32 -20 8 -11 22 -20 32 -20 10 0 18 -4
18 -10 0 -5 7 -10 16 -10 9 0 25 -9 35 -21 18 -21 18 -21 44 5 25 25 25 25 25
441 0 270 -3 415 -10 415 -6 0 -10 29 -10 66 0 73 -12 94 -54 94 -14 0 -26 5
-26 10 0 6 -18 10 -40 10 -22 0 -40 5 -40 10 0 6 -18 10 -40 10 -22 0 -40 5
-40 10 0 6 -9 10 -20 10 -11 0 -20 5 -20 10 0 6 -8 10 -18 10 -10 0 -24 9 -32
20 -8 11 -20 20 -27 20 -17 0 -103 86 -103 103 0 7 -9 19 -20 27 -11 8 -20 22
-20 32 0 10 -4 18 -10 18 -5 0 -10 9 -10 20 0 11 -4 20 -10 20 -5 0 -10 9 -10
20 0 11 -4 20 -10 20 -5 0 -10 14 -10 30 0 17 -4 30 -10 30 -6 0 -10 27 -10
60 0 33 -4 60 -10 60 -16 0 -12 129 4 146 17 16 46 19 46 4 0 -5 9 -10 20 -10
11 0 20 5 20 10 0 6 37 10 90 10 53 0 90 -4 90 -10 0 -6 53 -10 140 -10 87 0
140 4 140 10 0 6 12 10 26 10 14 0 32 6 40 14 12 13 14 507 14 3610 0 2391 -3
3596 -10 3596 -5 0 -10 7 -10 15 0 33 -47 65 -95 65 -25 0 -45 -4 -45 -10z
m-485 -1255 c25 -24 45 -51 45 -60 0 -8 5 -15 10 -15 6 0 10 -37 10 -90 0 -53
-4 -90 -10 -90 -5 0 -10 -7 -10 -16 0 -20 -24 -44 -44 -44 -9 0 -16 -4 -16
-10 0 -5 -9 -10 -20 -10 -11 0 -20 -4 -20 -10 0 -6 -29 -10 -68 -10 -56 0 -70
3 -82 20 -8 11 -22 20 -32 20 -10 0 -18 5 -18 10 0 6 -9 10 -20 10 -13 0 -20
7 -20 20 0 11 -4 20 -10 20 -5 0 -10 14 -10 30 0 17 -4 30 -10 30 -5 0 -10 23
-10 50 0 28 5 50 10 50 6 0 10 11 10 25 0 29 40 75 65 75 8 0 15 5 15 10 0 6
9 10 20 10 11 0 20 5 20 10 0 6 32 10 75 10 76 0 76 0 120 -45z m-755 -405 c0
-5 7 -10 15 -10 31 0 85 -67 85 -105 0 -19 5 -35 10 -35 6 0 10 -18 10 -40 0
-22 -4 -40 -10 -40 -5 0 -10 -9 -10 -20 0 -11 -4 -20 -10 -20 -5 0 -10 -12
-10 -26 0 -28 -20 -54 -42 -54 -8 0 -20 -9 -28 -20 -12 -17 -26 -20 -90 -20
-64 0 -78 3 -90 20 -8 11 -20 20 -28 20 -18 0 -62 46 -62 65 0 8 -4 15 -10 15
-5 0 -10 9 -10 20 0 11 -4 20 -10 20 -6 0 -10 27 -10 60 0 33 4 60 10 60 6 0
10 7 10 15 0 20 65 85 85 85 8 0 15 5 15 10 0 6 37 10 90 10 53 0 90 -4 90
-10z m-720 -480 c0 -5 7 -10 15 -10 20 0 65 -45 65 -65 0 -8 5 -15 10 -15 6 0
10 -13 10 -30 0 -16 5 -30 10 -30 6 0 10 -27 10 -60 0 -33 -4 -60 -10 -60 -5
0 -10 -7 -10 -15 0 -19 -44 -65 -62 -65 -8 0 -20 -9 -28 -20 -12 -17 -26 -20
-92 -20 -45 0 -78 4 -78 10 0 6 -7 10 -15 10 -20 0 -85 65 -85 85 0 8 -4 15
-10 15 -6 0 -10 35 -10 85 0 86 0 86 45 130 24 25 51 45 60 45 8 0 15 5 15 10
0 6 33 10 80 10 47 0 80 -4 80 -10z m1400 -100 c0 -5 8 -10 18 -10 10 0 24 -9
32 -20 8 -11 20 -20 28 -20 18 0 42 -25 42 -44 0 -9 5 -16 10 -16 6 0 10 -37
10 -90 0 -53 -4 -90 -10 -90 -5 0 -10 -7 -10 -15 0 -20 -45 -65 -65 -65 -8 0
-15 -4 -15 -10 0 -5 -9 -10 -20 -10 -11 0 -20 -4 -20 -10 0 -5 -18 -10 -40
-10 -22 0 -40 5 -40 10 0 6 -13 10 -30 10 -16 0 -30 5 -30 10 0 6 -7 10 -15
10 -20 0 -85 65 -85 85 0 8 -4 15 -10 15 -6 0 -10 30 -10 70 0 40 4 70 10 70
6 0 10 7 10 15 0 20 65 85 85 85 8 0 15 5 15 10 0 6 23 10 50 10 28 0 50 5 50
10 0 6 9 10 20 10 11 0 20 -4 20 -10z m-680 -440 c0 -5 12 -10 26 -10 33 0 54
-21 54 -54 0 -14 5 -26 10 -26 6 0 10 -9 10 -20 0 -11 5 -20 10 -20 6 0 10
-22 10 -50 0 -27 -4 -50 -10 -50 -5 0 -10 -11 -10 -25 0 -35 -80 -115 -115
-115 -14 0 -25 -4 -25 -10 0 -6 -27 -10 -60 -10 -33 0 -60 4 -60 10 0 6 -9 10
-20 10 -11 0 -20 5 -20 10 0 6 -7 10 -16 10 -20 0 -44 24 -44 44 0 9 -4 16
-10 16 -5 0 -10 9 -10 20 0 11 -4 20 -10 20 -6 0 -10 29 -10 68 0 56 3 70 20
82 11 8 20 20 20 28 0 18 46 62 65 62 8 0 15 5 15 10 0 6 37 10 90 10 53 0 90
-4 90 -10z m-780 -480 c0 -5 11 -10 25 -10 17 0 43 -17 80 -55 55 -55 55 -55
55 -140 0 -50 -4 -85 -10 -85 -5 0 -10 -7 -10 -15 0 -20 -45 -65 -65 -65 -8 0
-15 -4 -15 -10 0 -6 -37 -10 -90 -10 -53 0 -90 4 -90 10 0 6 -7 10 -15 10 -20
0 -85 65 -85 85 0 8 -4 15 -10 15 -6 0 -10 30 -10 70 0 40 4 70 10 70 6 0 10
7 10 15 0 20 65 85 85 85 8 0 15 5 15 10 0 6 14 10 30 10 17 0 30 5 30 10 0 6
14 10 30 10 17 0 30 -4 30 -10z m1440 -120 c0 -5 11 -10 25 -10 29 0 115 -79
115 -105 0 -8 5 -15 10 -15 6 0 10 -33 10 -80 0 -47 -4 -80 -10 -80 -5 0 -10
-7 -10 -15 0 -20 -65 -85 -85 -85 -8 0 -15 -4 -15 -10 0 -6 -30 -10 -70 -10
-40 0 -70 4 -70 10 0 6 -9 10 -20 10 -11 0 -20 5 -20 10 0 6 -7 10 -15 10 -20
0 -65 45 -65 65 0 8 -4 15 -10 15 -5 0 -10 9 -10 20 0 11 -4 20 -10 20 -5 0
-10 23 -10 50 0 28 5 50 10 50 6 0 10 7 10 15 0 20 105 125 125 125 8 0 15 5
15 10 0 6 23 10 50 10 28 0 50 -4 50 -10z m-700 -440 c0 -5 7 -10 15 -10 9 0
40 -25 70 -55 55 -55 55 -55 55 -140 0 -50 -4 -85 -10 -85 -5 0 -10 -13 -10
-30 0 -16 -4 -30 -10 -30 -5 0 -10 -9 -10 -20 0 -13 -7 -20 -20 -20 -11 0 -20
-4 -20 -10 0 -6 -42 -10 -105 -10 -106 0 -106 0 -150 45 -25 24 -45 51 -45 60
0 8 -4 15 -10 15 -6 0 -10 33 -10 80 0 47 4 80 10 80 6 0 10 7 10 15 0 20 65
85 85 85 8 0 15 5 15 10 0 6 18 10 40 10 22 0 40 5 40 10 0 6 14 10 30 10 17
0 30 -4 30 -10z m-720 -500 c0 -5 9 -10 20 -10 11 0 20 -4 20 -10 0 -5 7 -10
15 -10 25 0 65 -46 65 -75 0 -14 5 -25 10 -25 6 0 10 -30 10 -70 0 -40 -4 -70
-10 -70 -5 0 -10 -13 -10 -30 0 -16 -4 -30 -10 -30 -5 0 -10 -9 -10 -20 0 -13
-7 -20 -20 -20 -11 0 -20 -4 -20 -10 0 -5 -13 -10 -30 -10 -16 0 -30 -4 -30
-10 0 -6 -27 -10 -60 -10 -33 0 -60 4 -60 10 0 6 -11 10 -25 10 -29 0 -95 59
-95 85 0 8 -4 15 -10 15 -5 0 -10 23 -10 50 0 28 -4 50 -10 50 -5 0 -10 9 -10
20 0 11 5 20 10 20 6 0 10 9 10 20 0 11 5 20 10 20 6 0 10 7 10 15 0 20 45 65
65 65 8 0 15 5 15 10 0 6 9 10 20 10 11 0 20 5 20 10 0 6 27 10 60 10 33 0 60
-4 60 -10z m1440 -100 c0 -5 9 -10 20 -10 11 0 20 -4 20 -10 0 -5 7 -10 15
-10 20 0 65 -45 65 -65 0 -8 5 -15 10 -15 6 0 10 -37 10 -90 0 -53 -4 -90 -10
-90 -5 0 -10 -7 -10 -15 0 -19 -44 -65 -62 -65 -8 0 -20 -9 -28 -20 -12 -17
-26 -20 -90 -20 -64 0 -78 3 -90 20 -8 11 -20 20 -28 20 -18 0 -62 46 -62 65
0 8 -4 15 -10 15 -5 0 -10 9 -10 20 0 11 -4 20 -10 20 -5 0 -10 23 -10 50 0
28 5 50 10 50 6 0 10 9 10 20 0 11 5 20 10 20 6 0 10 7 10 15 0 20 45 65 65
65 8 0 15 5 15 10 0 6 9 10 20 10 11 0 20 5 20 10 0 6 27 10 60 10 33 0 60 -4
60 -10z m-700 -460 c0 -5 9 -10 20 -10 11 0 20 -4 20 -10 0 -5 7 -10 16 -10
20 0 44 -24 44 -44 0 -9 5 -16 10 -16 6 0 10 -40 10 -100 0 -60 -4 -100 -10
-100 -5 0 -10 -7 -10 -15 0 -31 -67 -85 -105 -85 -19 0 -35 -4 -35 -10 0 -5
-13 -10 -30 -10 -16 0 -30 5 -30 10 0 6 -16 10 -35 10 -30 0 -45 9 -90 55 -55
55 -55 55 -55 140 0 50 4 85 10 85 6 0 10 7 10 15 0 9 16 31 35 50 19 19 41
35 50 35 8 0 15 5 15 10 0 6 33 10 80 10 47 0 80 -4 80 -10z m680 -580 c0 -5
13 -10 28 -10 16 0 34 -8 42 -20 8 -11 20 -20 28 -20 22 0 42 -26 42 -54 0
-14 5 -26 10 -26 6 0 10 -13 10 -30 0 -16 5 -30 10 -30 6 0 10 -9 10 -20 0
-11 -4 -20 -10 -20 -5 0 -10 -16 -10 -35 0 -30 -9 -45 -55 -90 -55 -55 -55
-55 -140 -55 -50 0 -85 4 -85 10 0 6 -7 10 -15 10 -9 0 -36 20 -60 45 -25 24
-45 51 -45 60 0 8 -4 15 -10 15 -5 0 -10 23 -10 50 0 28 5 50 10 50 6 0 10 14
10 30 0 17 5 30 10 30 6 0 10 7 10 15 0 20 45 65 65 65 8 0 15 5 15 10 0 6 27
10 60 10 33 0 60 4 60 10 0 6 5 10 10 10 6 0 10 -4 10 -10z M6273 9885 c-10 -11 -13 -751 -13 -3625 0 -3611 0 -3611 35 -3645 34
-35 34 -35 295 -35 213 0 264 -3 276 -14 17 -17 20 -166 4 -166 -5 0 -10 -22
-10 -50 0 -27 -4 -50 -10 -50 -5 0 -10 -17 -10 -38 0 -26 -6 -42 -20 -52 -11
-8 -20 -25 -20 -38 0 -14 -13 -36 -30 -52 -16 -15 -30 -35 -30 -44 0 -9 -7
-16 -16 -16 -9 0 -29 -13 -44 -30 -15 -16 -34 -30 -42 -30 -7 0 -20 -9 -28
-20 -8 -11 -22 -20 -32 -20 -10 0 -18 -4 -18 -10 0 -5 -9 -10 -20 -10 -11 0
-20 -4 -20 -10 0 -5 -18 -10 -40 -10 -22 0 -40 -4 -40 -10 0 -5 -13 -10 -30
-10 -16 0 -30 -4 -30 -10 0 -5 -16 -10 -36 -10 -42 0 -64 -19 -64 -54 0 -14
-4 -26 -10 -26 -6 0 -10 -127 -10 -360 0 -233 4 -360 10 -360 6 0 10 -18 10
-40 0 -22 -4 -40 -10 -40 -16 0 -12 -109 4 -126 17 -16 66 -19 66 -4 0 6 14
10 30 10 17 0 30 5 30 10 0 6 8 10 18 10 10 0 24 9 32 20 8 11 22 20 32 20 10
0 18 5 18 10 0 6 8 10 18 10 10 0 24 9 32 20 8 11 21 20 28 20 8 0 27 14 42
30 15 17 33 30 40 30 7 0 25 14 40 30 15 17 34 30 42 30 7 0 20 9 28 20 8 11
20 20 28 20 7 0 66 54 132 120 66 66 124 120 130 120 14 0 120 107 120 121 0
6 18 28 40 49 22 21 40 44 40 50 0 6 22 33 50 60 28 27 50 54 50 60 0 7 14 25
30 40 17 15 30 35 30 44 0 9 5 16 10 16 6 0 10 7 10 16 0 9 14 29 30 44 17 15
30 35 30 44 0 9 5 16 10 16 6 0 10 8 10 18 0 10 9 24 20 32 11 8 20 21 20 30
0 9 9 22 20 30 11 8 20 22 20 32 0 10 5 18 10 18 6 0 10 9 10 20 0 11 5 20 10
20 6 0 10 9 10 20 0 11 5 20 10 20 6 0 10 9 10 20 0 11 5 20 10 20 6 0 10 9
10 20 0 11 5 20 10 20 6 0 10 13 10 28 0 16 8 34 20 42 11 8 20 22 20 32 0 10
5 18 10 18 6 0 10 14 10 30 0 17 5 30 10 30 6 0 10 9 10 20 0 11 5 20 10 20 6
0 10 14 10 30 0 17 5 30 10 30 6 0 10 14 10 30 0 17 5 30 10 30 6 0 10 14 10
30 0 17 5 30 10 30 6 0 10 14 10 30 0 17 5 30 10 30 6 0 10 18 10 40 0 22 5
40 10 40 6 0 10 14 10 30 0 17 5 30 10 30 6 0 10 27 10 60 0 33 4 60 10 60 6
0 10 14 10 30 0 17 5 30 10 30 6 0 10 9 10 20 0 11 5 20 10 20 6 0 10 14 10
30 0 17 5 30 10 30 6 0 10 14 10 30 0 17 5 30 10 30 6 0 10 9 10 20 0 11 5 20
10 20 6 0 10 9 10 20 0 11 5 20 10 20 6 0 10 8 10 18 0 10 9 24 20 32 11 8 20
26 20 40 0 14 9 32 20 40 11 8 20 22 20 32 0 10 5 18 10 18 6 0 10 7 10 16 0
9 14 29 30 44 17 15 30 33 30 40 0 7 14 25 30 40 17 15 30 33 30 39 0 7 41 52
90 101 50 49 90 94 90 100 0 6 23 33 50 60 28 27 50 54 50 60 0 7 14 25 30 40
17 15 30 33 30 40 0 6 23 33 50 60 28 27 50 54 50 60 0 7 14 25 30 40 17 15
30 34 30 42 0 7 9 20 20 28 11 8 20 21 20 30 0 9 9 22 20 30 11 8 20 22 20 32
0 10 5 18 10 18 6 0 10 14 10 30 0 17 5 30 10 30 6 0 10 7 10 16 0 9 14 29 30
44 17 16 30 38 30 52 0 13 9 30 20 38 11 8 20 22 20 32 0 10 5 18 10 18 6 0
10 9 10 20 0 11 5 20 10 20 6 0 10 9 10 20 0 11 5 20 10 20 6 0 10 14 10 30 0
17 5 30 10 30 6 0 10 9 10 20 0 11 5 20 10 20 6 0 10 14 10 30 0 17 5 30 10
30 6 0 10 14 10 30 0 17 5 30 10 30 6 0 10 14 10 30 0 17 5 30 10 30 6 0 10 9
10 20 0 11 5 20 10 20 6 0 10 18 10 40 0 22 5 40 10 40 6 0 10 23 10 50 0 28
5 50 10 50 6 0 10 9 10 20 0 11 5 20 10 20 6 0 10 18 10 40 0 22 5 40 10 40 6
0 10 14 10 30 0 17 5 30 10 30 6 0 10 30 10 70 0 40 4 70 10 70 6 0 10 18 10
40 0 22 5 40 10 40 6 0 10 30 10 70 0 40 4 70 10 70 6 0 10 33 10 80 0 47 4
80 10 80 7 0 10 217 10 630 0 413 -3 630 -10 630 -6 0 -10 30 -10 70 0 40 -4
70 -10 70 -5 0 -10 23 -10 50 0 28 -4 50 -10 50 -5 0 -10 23 -10 50 0 28 -4
50 -10 50 -5 0 -10 18 -10 40 0 22 -4 40 -10 40 -5 0 -10 14 -10 30 0 17 -4
30 -10 30 -5 0 -10 18 -10 40 0 22 -4 40 -10 40 -5 0 -10 9 -10 20 0 11 -4 20
-10 20 -5 0 -10 23 -10 50 0 28 -4 50 -10 50 -5 0 -10 14 -10 30 0 17 -4 30
-10 30 -5 0 -10 9 -10 20 0 11 -4 20 -10 20 -5 0 -10 14 -10 30 0 17 -4 30
-10 30 -5 0 -10 11 -10 25 0 51 -40 75 -125 75 -43 0 -75 -4 -75 -10 0 -5 -8
-10 -18 -10 -10 0 -24 -9 -32 -20 -8 -11 -21 -20 -30 -20 -9 0 -22 -9 -30 -20
-8 -11 -21 -20 -28 -20 -8 0 -27 -13 -42 -30 -15 -16 -33 -30 -40 -30 -7 0
-25 -13 -40 -30 -15 -16 -33 -30 -40 -30 -6 0 -33 -22 -60 -50 -27 -27 -54
-50 -59 -50 -16 0 -381 -367 -381 -383 0 -7 -9 -19 -20 -27 -11 -8 -20 -20
-20 -28 0 -7 -27 -40 -60 -72 -42 -42 -60 -66 -60 -84 0 -15 -4 -26 -10 -26
-5 0 -10 -9 -10 -20 0 -13 -7 -20 -20 -20 -12 0 -20 -7 -20 -16 0 -9 -13 -29
-30 -44 -16 -15 -30 -34 -30 -42 0 -7 -9 -20 -20 -28 -11 -8 -20 -21 -20 -30
0 -9 -9 -22 -20 -30 -11 -8 -20 -26 -20 -40 0 -14 -9 -32 -20 -40 -11 -8 -20
-21 -20 -30 0 -9 -9 -22 -20 -30 -11 -8 -20 -22 -20 -32 0 -10 -4 -18 -10 -18
-5 0 -10 -9 -10 -20 0 -11 -4 -20 -10 -20 -5 0 -10 -9 -10 -20 0 -11 -4 -20
-10 -20 -5 0 -10 -9 -10 -20 0 -11 -4 -20 -10 -20 -5 0 -10 -21 -10 -46 0 -40
-5 -50 -40 -84 -22 -21 -40 -46 -40 -54 0 -9 -4 -16 -10 -16 -5 0 -10 -9 -10
-20 0 -11 -4 -20 -10 -20 -5 0 -10 -9 -10 -20 0 -11 -4 -20 -10 -20 -5 0 -10
-13 -10 -30 0 -16 -4 -30 -10 -30 -5 0 -10 -13 -10 -28 0 -16 -8 -34 -20 -42
-11 -8 -20 -21 -20 -30 0 -9 -9 -22 -20 -30 -14 -10 -20 -26 -20 -52 0 -21 -4
-38 -10 -38 -5 0 -10 -9 -10 -20 0 -11 -4 -20 -10 -20 -5 0 -10 -9 -10 -20 0
-11 -4 -20 -10 -20 -5 0 -10 -13 -10 -30 0 -16 -4 -30 -10 -30 -5 0 -10 -22
-10 -48 0 -36 -5 -51 -20 -62 -12 -8 -20 -26 -20 -42 0 -15 -4 -28 -10 -28 -5
0 -10 -9 -10 -20 0 -11 -4 -20 -10 -20 -5 0 -10 -25 -10 -56 0 -49 -4 -59 -30
-84 -25 -23 -30 -36 -30 -74 0 -25 -4 -46 -10 -46 -6 0 -10 -33 -10 -80 0 -47
-4 -80 -10 -80 -5 0 -10 -8 -10 -18 0 -10 -9 -24 -20 -32 -14 -10 -20 -26 -20
-52 0 -21 -4 -38 -10 -38 -6 0 -10 -27 -10 -60 0 -33 -4 -60 -10 -60 -5 0 -10
-13 -10 -30 0 -16 -4 -30 -10 -30 -5 0 -10 -18 -10 -40 0 -22 -4 -40 -10 -40
-5 0 -10 -16 -10 -36 0 -46 -23 -72 -45 -50 -11 11 -15 39 -15 110 0 57 -4 96
-10 96 -6 0 -10 30 -10 70 0 40 -4 70 -10 70 -6 0 -10 43 -10 110 0 67 -4 110
-10 110 -6 0 -10 103 -10 290 0 187 4 290 10 290 6 0 10 53 10 140 0 87 4 140
10 140 6 0 10 37 10 90 0 53 4 90 10 90 6 0 10 27 10 60 0 33 4 60 10 60 6 0
10 23 10 50 0 28 5 50 10 50 6 0 10 27 10 60 0 33 4 60 10 60 6 0 10 9 10 20
0 11 5 20 10 20 6 0 10 18 10 40 0 22 5 40 10 40 6 0 10 18 10 40 0 22 5 40
10 40 6 0 10 14 10 30 0 17 5 30 10 30 6 0 10 14 10 30 0 17 5 30 10 30 6 0
10 14 10 30 0 17 5 30 10 30 6 0 10 9 10 20 0 11 5 20 10 20 6 0 10 18 10 40
0 22 5 40 10 40 6 0 10 13 10 28 0 16 8 34 20 42 12 8 20 26 20 42 0 15 5 28
10 28 6 0 10 14 10 30 0 17 5 30 10 30 6 0 10 9 10 20 0 11 5 20 10 20 6 0 10
9 10 20 0 11 5 20 10 20 6 0 10 14 10 30 0 17 5 30 10 30 6 0 10 9 10 20 0 11
5 20 10 20 6 0 10 9 10 20 0 11 5 20 10 20 6 0 10 8 10 18 0 10 9 24 20 32 11
8 20 21 20 30 0 9 9 22 20 30 11 8 20 26 20 40 0 14 9 32 20 40 11 8 20 22 20
32 0 10 5 18 10 18 6 0 10 8 10 18 0 10 9 24 20 32 11 8 20 26 20 40 0 14 9
32 20 40 11 8 20 21 20 30 0 9 9 22 20 30 11 8 20 21 20 30 0 9 9 22 20 30 11
8 20 22 20 32 0 10 5 18 10 18 6 0 10 7 10 16 0 9 14 29 30 44 17 15 30 33 30
40 0 7 14 25 30 40 17 15 30 33 30 40 0 7 14 25 30 40 17 15 30 35 30 44 0 9
5 16 10 16 6 0 10 7 10 16 0 8 18 33 40 54 22 21 40 44 40 50 0 6 18 29 40 50
22 21 40 43 40 50 0 6 36 46 80 90 44 44 80 84 80 90 0 7 18 29 40 50 36 35
40 43 40 90 0 51 -30 100 -61 100 -6 0 -24 14 -39 30 -15 17 -34 30 -42 30 -7
0 -20 9 -28 20 -8 11 -26 20 -40 20 -14 0 -32 9 -40 20 -8 11 -21 20 -30 20
-9 0 -22 9 -30 20 -8 11 -21 20 -30 20 -9 0 -22 9 -30 20 -8 11 -22 20 -32 20
-10 0 -18 5 -18 10 0 6 -9 10 -20 10 -11 0 -20 5 -20 10 0 6 -8 10 -18 10 -10
0 -24 9 -32 20 -8 12 -26 20 -42 20 -15 0 -28 5 -28 10 0 6 -8 10 -18 10 -10
0 -24 9 -32 20 -8 11 -22 20 -32 20 -10 0 -18 5 -18 10 0 6 -9 10 -20 10 -11
0 -20 5 -20 10 0 6 -9 10 -20 10 -11 0 -20 5 -20 10 0 6 -18 10 -40 10 -22 0
-40 5 -40 10 0 6 -9 10 -20 10 -11 0 -20 5 -20 10 0 6 -17 10 -38 10 -26 0
-42 6 -52 20 -8 11 -26 20 -40 20 -14 0 -32 9 -40 20 -11 15 -26 20 -62 20
-26 0 -48 5 -48 10 0 6 -9 10 -20 10 -11 0 -20 5 -20 10 0 6 -22 10 -50 10
-27 0 -50 5 -50 10 0 6 -9 10 -20 10 -11 0 -20 5 -20 10 0 6 -13 10 -30 10
-16 0 -30 5 -30 10 0 6 -13 10 -30 10 -16 0 -30 5 -30 10 0 6 -30 10 -70 10
-40 0 -70 4 -70 10 0 6 -18 10 -40 10 -22 0 -40 5 -40 10 0 6 -47 10 -120 10
-73 0 -120 4 -120 10 0 15 -33 11 -47 -5z m2313 -3239 c8 -8 14 -22 14 -30 0
-9 5 -16 10 -16 6 0 10 -8 10 -18 0 -10 9 -24 20 -32 11 -8 20 -22 20 -32 0
-10 5 -18 10 -18 6 0 10 -9 10 -20 0 -11 5 -20 10 -20 6 0 10 -13 10 -30 0
-16 5 -30 10 -30 6 0 10 -82 10 -226 0 -226 0 -226 -30 -254 -18 -17 -30 -38
-30 -54 0 -14 -4 -26 -10 -26 -5 0 -10 -8 -10 -18 0 -10 -9 -24 -20 -32 -11
-8 -20 -21 -20 -30 0 -9 -9 -22 -20 -30 -15 -11 -20 -26 -20 -58 0 -48 -17
-72 -50 -72 -22 0 -70 -41 -70 -60 0 -14 -146 -160 -160 -160 -16 0 -60 -47
-60 -65 0 -8 -9 -15 -20 -15 -11 0 -20 -4 -20 -10 0 -5 -8 -10 -18 -10 -10 0
-24 -9 -32 -20 -8 -11 -21 -20 -28 -20 -8 0 -27 -13 -42 -30 -15 -16 -34 -30
-42 -30 -7 0 -20 -9 -28 -20 -8 -11 -21 -20 -28 -20 -8 0 -27 -13 -42 -30 -15
-16 -35 -30 -44 -30 -9 0 -16 -4 -16 -10 0 -5 -9 -10 -20 -10 -11 0 -20 -4
-20 -10 0 -5 -17 -10 -38 -10 -26 0 -42 -6 -52 -20 -8 -12 -26 -20 -42 -20
-15 0 -28 -4 -28 -10 0 -5 -18 -10 -40 -10 -38 0 -40 2 -40 30 0 17 5 30 10
30 6 0 10 57 10 150 0 93 4 150 10 150 6 0 10 23 10 50 0 28 5 50 10 50 6 0
10 23 10 50 0 28 5 50 10 50 6 0 10 18 10 40 0 22 5 40 10 40 6 0 10 18 10 40
0 22 5 40 10 40 6 0 10 14 10 30 0 17 5 30 10 30 6 0 10 9 10 20 0 11 5 20 10
20 6 0 10 18 10 40 0 22 5 40 10 40 6 0 10 9 10 20 0 11 5 20 10 20 6 0 10 9
10 20 0 11 5 20 10 20 6 0 10 9 10 20 0 11 5 20 10 20 6 0 10 9 10 20 0 11 5
20 10 20 6 0 10 8 10 18 0 10 9 24 20 32 11 8 20 22 20 32 0 10 5 18 10 18 6
0 10 9 10 20 0 11 5 20 10 20 6 0 10 7 10 16 0 8 27 42 60 74 33 32 60 64 60
70 0 14 126 140 141 140 6 0 24 14 39 30 15 17 34 30 42 30 7 0 20 9 28 20 8
11 22 20 32 20 10 0 18 5 18 10 0 6 9 10 20 10 11 0 20 5 20 10 0 6 9 10 20
10 11 0 20 5 20 10 0 6 14 10 30 10 17 0 30 5 30 10 0 16 89 12 106 -4z"/></g></g>
</svg>